<svg xmlns="http://www.w3.org/2000/svg" viewBox="0 0 512 512" width="24" height="24" fill='#000000'>
<path d="M 511.5,349.5 C 511.5,352.833 511.5,356.167 511.5,359.5C 502.167,359.5 492.833,359.5 483.5,359.5C 481.667,346.385 474,340.051 460.5,340.5C 449.841,340.239 442.341,344.906 438,354.5C 437.506,356.134 437.34,357.801 437.5,359.5C 428.167,359.5 418.833,359.5 409.5,359.5C 410.488,339.523 419.988,325.19 438,316.5C 439.447,286.63 435.114,257.63 425,229.5C 417.948,210.448 404.948,197.448 386,190.5C 385.667,230.5 385.333,270.5 385,310.5C 378.866,337.103 362.033,349.437 334.5,347.5C 334.333,358.172 334.5,368.839 335,379.5C 344.067,386.976 346.733,396.309 343,407.5C 341.218,411.409 338.718,414.742 335.5,417.5C 334.5,436.822 334.167,456.155 334.5,475.5C 321.5,475.5 308.5,475.5 295.5,475.5C 295.667,456.83 295.5,438.164 295,419.5C 278.364,405.539 278.364,391.539 295,377.5C 295.5,367.506 295.666,357.506 295.5,347.5C 268.833,347.5 242.167,347.5 215.5,347.5C 215.334,357.506 215.5,367.506 216,377.5C 227.806,386.216 230.806,397.216 225,410.5C 222.667,414.167 219.667,417.167 216,419.5C 215.5,438.164 215.333,456.83 215.5,475.5C 202.5,475.5 189.5,475.5 176.5,475.5C 176.833,456.155 176.5,436.822 175.5,417.5C 166.238,409.112 164.071,399.112 169,387.5C 170.961,384.537 173.294,381.871 176,379.5C 176.5,368.839 176.667,358.172 176.5,347.5C 148.967,349.437 132.134,337.103 126,310.5C 125.667,270.5 125.333,230.5 125,190.5C 106.052,197.448 93.0517,210.448 86,229.5C 75.8861,257.63 71.5528,286.63 73,316.5C 90.9982,325.154 100.498,339.487 101.5,359.5C 92.1667,359.5 82.8333,359.5 73.5,359.5C 73.1851,350.711 68.8517,344.878 60.5,342C 51.3744,339.291 42.7077,340.291 34.5,345C 29.6051,348.623 27.2717,353.456 27.5,359.5C 18.1667,359.5 8.83333,359.5 -0.5,359.5C -0.5,356.167 -0.5,352.833 -0.5,349.5C 4.61667,332.213 15.7833,320.546 33,314.5C 32.5122,279.76 38.1788,246.093 50,213.5C 60.3439,186.825 78.5105,167.658 104.5,156C 112.05,153.529 119.717,151.529 127.5,150C 134.998,131.675 148.664,122.175 168.5,121.5C 168.333,109.162 168.5,96.8288 169,84.5C 174.279,58.5543 189.779,42.3876 215.5,36C 242.167,35.3333 268.833,35.3333 295.5,36C 321.221,42.3876 336.721,58.5543 342,84.5C 342.5,96.8288 342.667,109.162 342.5,121.5C 362.336,122.175 376.002,131.675 383.5,150C 409.288,153.806 430.121,165.973 446,186.5C 462.202,211.434 471.868,238.767 475,268.5C 476.818,283.778 477.818,299.111 478,314.5C 495.217,320.546 506.383,332.213 511.5,349.5 Z M 204.5,164.5 C 238.502,164.333 272.502,164.5 306.5,165C 318.46,166.961 325.96,173.794 329,185.5C 329.667,218.167 329.667,250.833 329,283.5C 325.281,295.614 317.114,302.448 304.5,304C 271.833,304.667 239.167,304.667 206.5,304C 193.886,302.448 185.719,295.614 182,283.5C 181.333,250.833 181.333,218.167 182,185.5C 185.214,173.783 192.714,166.783 204.5,164.5 Z"/>
</svg>
