<svg xmlns="http://www.w3.org/2000/svg" width="24" height="24" viewBox="0 0 1830 1920"><path d="M101.7 1.5C60.9 9.2 29 38.8 18.3 78.8c-2.3 8.5-2.6 11.8-2.7 25.7-.1 18.4 1.6 26.9 8.2 42.2 5.4 12.7 12.2 22.4 22.7 32.8 10.3 10.1 22.3 18.1 34.8 23.1l8.2 3.2.5 133.4.5 133.3 2.6 5.6c2.1 4.4 4.5 7.1 11 12.6 9.7 8.1 98.8 79.6 138.6 111.2l27.1 21.6.4 165 .3 165 3 5.2c1.7 2.9 21.8 27.1 44.8 53.9l41.7 48.6-.2 124-.3 124.1-7.2 2.7c-31.3 12-55.2 38.8-64 71.6-2.4 8.8-2.7 11.7-2.7 26.4 0 14.8.3 17.5 2.8 26.5 10.1 37.2 38.3 65.3 75.5 75.3 8.5 2.3 11.5 2.6 26.1 2.5 14.8 0 17.5-.3 26.5-2.7 37.6-10.2 65.6-38.8 75.6-77.2 3.4-12.8 3.4-35.9 0-48.7-8.9-34.1-31.6-60.4-63.4-73.2l-8.2-3.3-.5-133.4-.5-133.3-2.1-4.6c-1.4-2.9-18.9-24.1-44.8-54.4L330 933.9v-657l5.9 3.3c3.2 1.8 36.9 21.1 75 42.8l69.1 39.5-.2 30.9-.3 30.9-7.2 2.7c-31.5 12.1-55.1 38.6-64.1 71.9-2.3 8.5-2.6 11.5-2.6 26.1 0 14.6.3 17.6 2.6 26.1 10 37.2 38.4 65.7 75.4 75.6 8.8 2.4 11.7 2.7 26.4 2.7 14.8 0 17.5-.3 26.4-2.8 34.1-9.3 60.5-33.5 72.1-65.9 8.3-23.2 8.6-45.4.9-68.7-9.6-29.1-30.9-52-59.7-64l-9.2-3.9-.5-43.3-.5-43.3-2.8-5.8c-1.6-3.1-4.5-7.1-6.5-8.8-5.8-4.9-217.8-125.6-222.7-126.8-14.8-3.7-30.1 4.1-35.4 18.2l-2.1 5.8V383c0 89.7-.3 163-.6 163s-13.2-10.2-28.7-22.6c-15.5-12.5-42.3-34-59.5-47.7L150 450.6l.2-122.4.3-122.4 8.2-3.2c12.5-5 24.5-13 34.8-23.1 10.5-10.4 17.3-20.1 22.7-32.8 6.5-15.1 8.2-23.7 8.2-42.2-.1-14-.4-17.2-2.6-25.5-10.1-37.5-38.7-66.1-75.6-75.7-12.4-3.2-32.7-4-44.5-1.8zm28.6 60c23 6 37.4 27.3 33.9 50-3 19.4-17.8 34.4-37.2 37.7-23.7 4.1-47-12.8-51.2-37.2-5.3-30.8 24.4-58.3 54.5-50.5zm390 420c18.3 4.8 31.1 18.8 34 37.5 4.4 28.9-22.4 55.2-51.2 50.2-24.6-4.2-41.4-27.3-37.3-51.3 4.4-25.8 29.9-42.8 54.5-36.4zm-120 885c18.1 4.7 30.8 18.6 34 37 4.9 28.8-22.3 55.7-51.3 50.7-23.8-4.1-40.1-25.6-37.6-49.6.6-4.8 1.9-8.9 4.7-14.6 9.5-18.9 30.4-28.7 50.2-23.5zM783.6 2.5c-7 2.9-11.8 7.2-15.4 14l-2.7 5v257l2.7 5c1.9 3.6 20.1 22.4 66.5 68.6 60.6 60.5 64.1 63.8 69.6 65.8 5.9 2.1 6.1 2.1 102 1.9l96.2-.3 5-2.3c3.8-1.8 11.1-8.3 31.2-28.4l26.1-26.1 8.4 3.6c14.8 6.4 24 8.2 42.3 8.1 13.9-.1 17.3-.4 25.6-2.6 30.8-8.3 57.9-31.4 70-59.8 25.7-60.4-7.6-127.3-71.7-144.1-7.6-2-11.2-2.4-24.9-2.3-13.9.1-17.3.4-25.6 2.6-29.5 7.9-53.5 27.1-67.3 53.8-8.8 17-12.3 33.4-11.3 53.4.7 13.8 3 24 8.3 36.4l3.7 8.4-19.9 19.9-19.9 19.9h-155l-51.3-51.3-51.2-51.2V60h71.8c92.1.1 116.2 1.2 164.2 7.6 138.9 18.4 270.4 73.7 372 156.2 56.8 46.2 103.7 99.2 141.6 160.2 9.4 15.1 20.4 34.1 20.4 35.3 0 .4-22.4.7-49.7.7l-49.8-.1-3.4-8.7c-16.2-41.6-58-68.4-103.1-65.9-55.6 3.1-99 48.9-99 104.7 0 35.2 17.5 67.9 46.9 87.4 6.1 4.1 19.3 10.6 26.4 12.9 1.6.6 1.7 8.1 1.7 137.7v137l-116.7.2-116.8.3-5.1 2.7c-6.4 3.4-12.4 10-14.7 16.4-1.6 4.5-1.7 11.4-1.7 90.1v85.3h-60l-.2-93.8-.3-93.7-2.9-5.8c-2.6-5.4-6.2-8.7-52.2-48l-49.3-42.2-.1-98.3V540h122.5l19.9 19.9 19.9 19.9-3.7 8.5c-5.4 12.6-7.7 22.5-8.3 36.3-1.5 31.1 8.8 57.7 30.6 79.5 13.7 13.7 29.2 22.6 48 27.7 8.3 2.2 11.7 2.5 25.6 2.6 17.5.1 26.1-1.5 40.7-7.4 16.6-6.8 35.9-22.3 45.7-36.8 41.8-61.9 11-143.3-61.5-162.3-7.5-2-11.3-2.4-24.4-2.3-17.7 0-27.3 1.8-41.8 8.1l-8.4 3.6-26.1-26.1c-20.1-20.1-27.4-26.6-31.2-28.4l-5-2.3-88.7-.3c-88.4-.2-88.6-.2-94.3 1.9-7.1 2.6-12.8 7.7-16.3 14.3l-2.7 5.1v257l3 5.5c2.6 4.8 9.4 10.9 52 47.5l49 42.1.3 83.2.2 83.1-64.2.3-64.3.3-5 2.7c-6.8 3.7-250.2 247.2-253.7 253.8l-2.3 4.5-.5 126.4-.5 126.4-7.2 2.7c-31.5 12.1-54.7 38.1-64.1 71.7-2.4 8.9-2.7 11.3-2.6 26.3.1 14.5.4 17.7 2.7 26.3 12 45 50.5 76.1 96.7 78.4 46.2 2.3 88.1-25.8 103.6-69.4 8.3-23.2 8.3-47.5 0-70.8-7.9-21.9-21.7-39.4-41.5-52.3-8-5.2-22.7-12.2-25.7-12.2-1.2 0-1.4-16.5-1.4-116.3v-116.2l111.3-111.2L882.5 1080l275-.2 275-.3 5.7-2.8c3.1-1.5 7.1-4.4 8.8-6.3 1.7-1.9 24.3-46 50.3-98l47.2-94.4.3-56.5.3-56.5H1677v123.2l-20 43.6c-10.9 24-20.5 46.1-21.1 48.9-1.6 6.9-.8 10.2 8.5 35 4.1 10.9 20.7 55.1 36.9 98.3 90.5 240.9 88.8 236 87.7 238-1 1.9-3.2 2-70.3 2.2l-69.2.3-5 2.7c-6.5 3.4-10.8 8-13.9 14.8-4.9 10.6-4.8 11 15.8 72.5l18.3 54.7-3.1 1.3c-1.7.6-17.9 6.3-35.9 12.5-18.1 6.3-34.8 12.6-37.2 14.1-7.8 4.9-13.5 15.5-13.5 24.9 0 9.6 1.1 11.4 31.6 54 7.7 10.7 14.9 20.9 16.1 22.6l2.2 3-17.1 13.5c-22.6 17.8-26.4 21.2-29.6 27.3l-2.7 5.1-.6 50c-.7 53.5-.8 55.3-6.2 69.7-11.2 29.7-35.2 51.7-65.4 60-11.1 3-35.7 3-57.3-.1-83.8-12-196.8-49.5-291.1-96.7C1006.1 1696.1 918 1620 879 1539.5c-10.7-22.1-16-38-20.7-62.5-2.5-13-2.6-15.4-3.3-60.5-.7-52.9-.4-50.7-8.6-59.5-14.9-15.9-41.8-10.6-49.4 9.8-2.1 5.6-2.2 6.7-1.7 53.2.3 42.7.6 48.9 2.6 61.4 7.8 49.4 26.9 94 59.8 139.4 68.1 93.9 196.2 179.5 361.8 241.4 95.5 35.8 198.8 59.7 248 57.5 71-3.2 129.8-54.6 144.6-126.4 2.1-9.9 2.3-14.2 2.7-51.9l.4-41.2 6.1-4.9c3.4-2.7 15-12 25.8-20.5 10.7-8.5 21-17.3 22.7-19.4 5.9-7.1 7.8-18.5 4.6-27.7-.9-2.8-9.6-16-21.4-32.4-10.9-15.3-19.7-27.9-19.6-28.1.2-.1 14.4-5.2 31.5-11.1 17.2-6 33-12.1 35.2-13.5 7.5-5 12.9-15.5 12.9-25.1 0-2.8-5.6-20.9-16.5-53.1-9.1-26.9-16.5-49.2-16.5-49.7 0-.4 21.3-.7 47.3-.7 50.2 0 53.3-.3 64.2-5.1 26.8-11.8 43.1-42.7 37.2-70.4-.8-3.9-15.8-45.1-33.2-91.5-36.6-97.6-92.4-245.9-95.5-254.1l-2.2-5.6 18.6-40.8c10.2-22.4 19.1-42.6 19.7-44.9.7-2.8.9-34.4.6-99.1-.4-99-.5-100.5-5.2-141.5-2.5-21.3-9.1-59.7-14-81.5-20-88.5-53.7-168.8-101-240.5-56.8-86.1-132-158.9-222.8-215.7-97.3-60.9-207.3-99.9-326.7-115.7C1017.8 1.1 991.5 0 882 0h-92.5l-5.9 2.5zm441.7 224c13.3 3.4 23.8 11.8 29.6 23.5 12.8 26.1-1.2 56.1-29.6 63.5-27.5 7.2-55.3-14.7-55.3-43.5 0-28.7 27.9-50.6 55.3-43.5zm180 180c17.9 4.6 30.7 18.6 33.8 36.7 4.9 29.3-21.9 56-51.2 51-36.5-6.3-50.5-50-24.4-75.7 11.6-11.5 26.9-15.9 41.8-12zm223.7 86.7c19.1 49.1 33.2 104.8 41 162.1 2 15.1 5 43.2 5 47.3v2.4l-84.2.2-84.3.3-5.1 2.7c-2.8 1.5-7 4.8-9.2 7.3-7.4 8.5-7.2 5.8-7.2 80.2v66.4l-39.2 78.9-39.3 78.8-118.2.1-118.3.1V885h115c113.6 0 115 0 120.4-2.1 6.7-2.5 13.9-9.1 16.9-15.7l2.2-4.7.3-156.1.2-156.2 2.8-.7c9.4-2.3 24.8-11.1 35.9-20.4 12.1-10.2 26.2-31.1 30.4-45.1l1.2-4h128.6l5.1 13.2zM1208.1 586c18.6 3.5 32.6 18 36 37.1 5.2 29.2-21.9 56.1-51.4 51.1-37-6.4-50.6-51.8-23-77.2 10.5-9.6 24.5-13.6 38.4-11zM640.3 1591.5c22.7 5.9 37.4 27.3 34 49.5-3.9 25.1-27.1 42.4-51.3 38.2-24.6-4.2-41.3-27.3-37.2-51.3 4.4-25.9 29.9-42.8 54.5-36.4z"/><path d="M664.4 77c-6.8 2.7-12.9 8.1-16.2 14.4l-2.7 5.1v257l2.3 4.5c1.6 3 21.1 23.2 59.8 62l57.4 57.5v440L652.5 1030 540 1142.5v-108.8c0-93.3.2-108.7 1.4-108.7 3.1 0 17.8-7 26-12.3 34.1-22.3 52.8-64.2 46.2-103.7-7.1-43.3-38.4-76.6-81.1-86.6-6.1-1.5-11.6-1.9-23.5-1.8-13.4.1-16.8.4-25.4 2.7-36.9 9.9-65.4 38.4-75.4 75.6-2.3 8.5-2.6 11.5-2.6 26.1 0 14.6.3 17.6 2.6 26.1 8.9 33 31.6 58.7 63.2 71.5l8.1 3.2.5 148.9.5 148.8 2.3 4.2c3.4 6.4 8 11.1 13.6 14.1 4.4 2.3 6.3 2.7 13.6 2.7 7.4 0 9.2-.4 13.6-2.8 3.7-2.1 43.8-41.6 151.1-149C805.7 961.6 821 946 822.6 941.5c1.8-4.8 1.9-12.9 1.9-244 0-231.6-.1-239.2-1.9-244-1.6-4.4-8.9-12-59.7-63l-57.9-58-.2-117.5c-.3-117.1-.3-117.5-2.4-122.1-4.9-10.6-14.3-16.9-26.2-17.5-5-.3-8 .1-11.8 1.6zM520.3 781.5c18.1 4.7 30.9 18.6 33.9 36.9 1.5 9-.1 18-4.8 27.4-8.5 16.8-27.9 26.6-46.4 23.4-35.9-6.1-50.3-49.4-25.1-75.2 11.5-11.7 27.4-16.4 42.4-12.5zM86.7 691.5c-40.8 7.7-72.3 36.9-83.4 77.1C.9 777.5.6 780.2.6 795c0 14.6.3 17.6 2.6 26 5.1 18.7 14 34.3 27.2 47.6 11.3 11.3 23 19 37.1 24.4l7 2.7v203.4l-8.4 3.4c-22.9 9.4-41.4 25.8-53 47-33 60.3-1 134.2 65.9 152.3 8.4 2.3 11.4 2.6 26 2.6s17.6-.3 26.2-2.7c37.7-10.1 65.8-38.7 75.9-77.3 3.4-12.9 3.4-35.9 0-48.8-9-34.3-31.5-60.2-63.5-73.2l-8.1-3.2-.3-101.6L135 896l2.7-1.1c16.6-6 30.4-14.8 41.8-26.3 13.6-13.8 23-30.6 27.8-49.5 1.7-7 2.1-11.5 2.1-24.6-.1-14-.4-17.2-2.6-25.5-10.1-37.5-38.7-66-75.8-75.7-12.2-3.2-32.6-4-44.3-1.8zm27.5 59.6c12.9 2.7 24.8 12 30.9 24.1 13.4 26.5-3.3 58.9-33.1 64-23.8 4.1-47-12.7-51.2-37.1-5.2-30.5 22.9-57.4 53.4-51zm0 405c22.7 4.8 38.9 28.1 35.1 50.4-3.4 19.5-18.1 34.4-37.3 37.7-29 5-56.2-21.9-51.3-50.7 4.4-25.8 28.6-42.7 53.5-37.4z"/></svg>