<svg xmlns="http://www.w3.org/2000/svg" width="24" height="24" viewBox="0 0 512 512"><path d="M365.4 28.8c-7.3 3.6-12.4 8.5-16.1 15.5-2.5 4.7-2.8 6.2-2.8 15.2 0 9.4.2 10.4 3.3 16.1 4.5 8.2 11.5 14.8 25 23.3 14.7 9.3 16.2 9.3 21.4.2 1.7-3.1 5.1-8.6 7.5-12.4 4.8-7.5 5.2-9.8 2.4-14.4-1.7-2.7-1.9-4.4-1.4-12.6.7-11.4-1.2-18.5-6.4-24.7-5.1-5.9-10.3-8.3-19.3-8.7-6.7-.4-8.1-.1-13.6 2.5zM272 59.3c-37.6 1-39 1.2-39 6.5 0 1.5 1.4 4.9 3 7.7 3.4 5.7 3.8 9.5 1.3 11.7-1 .8-28.5 16.7-61 35.2-47.1 26.8-59.4 34.2-59.9 36-.4 1.8 1.5 5.9 7.3 16.1 4.3 7.6 8.8 14.4 10 15.2 2.8 1.9-3.8 5.4 67-35.1 31.4-17.9 58-32.6 59.1-32.6 2.2 0 3.9 1.8 7.5 8.2 3 5.2 5.8 6.7 8.8 4.6C278 131.6 320 65.7 320 64c0-.4-.9-1.9-2.1-3.4-1.7-2.2-2.8-2.6-6.7-2.4-2.6.1-20.2.6-39.2 1.1zM346.5 105.4c-8.8 3.8-16.7 20-21 43.1-.9 5-5 18.1-9.2 29.5-10.6 29-10.6 28.8-1.3 58 6.8 21.4 7.1 22.8 6.5 29.5-1.8 21.8-1.8 22 .3 26.1 4.6 9.1 10.9 11.7 17.9 7.4 8.2-5 8.1-11.3-.7-53.5-7.7-37.4-7.8-36.1 1.8-68.6 3.8-13 7.5-24.5 8.1-25.7 2.4-4.5 10-3.7 12.2 1.2 1 2 0 6.4-6 27.3-5.6 19.5-7.1 26.2-7.1 31.4 0 4.2 2.4 18.1 6.6 38.5 5.5 26.5 6.5 33 6 38.2-.6 6.9-3.2 13.8-7.1 18.4-1.4 1.6-2.5 3.7-2.5 4.7 0 .9 9.2 12.9 20.5 26.6 11.2 13.8 21.5 27.2 22.9 30 1.3 2.7 2.7 7.7 3.1 11 1.1 8.3 2.6 12.3 8.9 22.4 11.3 18.3 15.2 28.3 22.6 58.5 5.3 21.7 6.3 23.6 12.3 23.6 3.1 0 41.1-13.3 43.4-15.2 1.7-1.3 1.7-6.2.1-7.6-.7-.5-5.8-1.5-11.4-2.1-14.3-1.5-19.8-2.9-22.2-5.4-1.7-1.8-2.6-5.3-4.2-17.2-2.6-18.7-8.8-55.7-10.1-60.8-.5-2-4.2-10.6-8.1-19-18.3-39.3-38.2-84.9-40.3-92.3-5.5-18.9-5.6-37.7-.4-63.9 1.6-8.3 3.5-20.7 4.1-27.6 1.5-16.4 0-24.8-7-39.2-6.1-12.4-13.7-20.8-23.2-25.6-6.8-3.3-10.7-3.8-15.5-1.7zM77.1 176.9c-7.7 4.4-13.9 8.7-14.4 9.9-.8 1.7.2 4.2 5.3 13.4C78 218.1 78.7 219 81.7 219c2.6 0 25.7-12.3 29.6-15.8.9-.8 1.7-2.4 1.7-3.4 0-1.7-10.8-21.6-15.2-28.1-1.3-1.8-2.8-2.7-4.6-2.6-1.5 0-8.7 3.5-16.1 7.8zM34.3 201.5c-8.3 4.5-8.2 6 .7 21.6 8.2 14.2 9.5 15.9 12.4 15.9 3.5 0 12.5-5.8 13.2-8.4.4-1.8-1.1-5.4-6.2-14.2-11.4-20-11.2-19.9-20.1-14.9z"/><path d="M402.1 201.8c-1.9 3.7-5.2 18.7-4.7 21.5.3 1.6 4.2 8.8 8.6 16l8 13.1v9.9c0 10.7 1.1 14 5.6 17.6 3.3 2.6 10.4 2.8 14 .5 8-5.3 7.1-17.8-2.1-30.4-2-2.7-5.7-10.2-8.5-16.8-6.8-16.5-13.8-31.5-15.3-32.4-2.1-1.3-4.6-.9-5.6 1zM176.8 251c-12 2.1-23.8 11.1-29.2 22.2-3.9 8.1-4.4 8.3-14.5 8-10.3-.4-19.4 2.1-26.2 7-2.4 1.7-19.7 15.9-38.5 31.5-30.2 25-34.3 28.8-36.7 33.5-5.1 10.2-5.5 19.5-1.2 27.7 2.9 5.8 14.7 14.9 46 35.9 11 7.3 21.2 14.5 22.7 16 1.6 1.4 3.8 5.1 5 8.1 2 4.9 2.3 7.5 2.4 21.6.1 19.8-.1 18.1 3 21 2.6 2.4 3.3 2.5 16 2.5 13.1 0 13.4 0 15-2.5 2.6-3.9 1.1-7-5.2-11l-5.6-3.6.8-11.2c.5-6.2.8-17.6.7-25.5-.3-20.1-.1-19.8-25.7-47.7-4.3-4.7-7.7-8.7-7.5-8.9 2.5-2.3 42.9-19.6 42.9-18.4.1 3.5 8.4 41.7 9.3 43.2.8 1.2 4 5.5 7.1 9.6 7.2 9.4 16 27.1 21.1 42.2 3.9 11.5 3.9 11.7 2.3 15.2-1.1 2.2-3.2 4.3-5.7 5.6-4.6 2.3-6.5 5.2-5.7 8.6 1 3.8 3.9 4.6 14.9 4.2 8.6-.2 10.7-.6 13.3-2.5 5.6-4 6.8-8.1 6.1-20.9-1.4-25-9.4-50.3-20.9-65.4-2.2-2.9-4.4-6.3-4.9-7.7-1.5-4.1.9-62 2.8-66 2.1-4.5 6.6-7 15.9-8.9 14.6-3 16.5-5.3 17.2-20.9l.4-10-3.7-4.3c-3.3-3.8-3.8-5.2-4.6-12-1.2-9.8-2.5-12.9-6.1-14.8-3.4-1.8-16.6-2.6-23-1.4zM327.2 321.2c-.5.7-1.5 4.7-2.1 8.7-1.5 9.5-3.8 14.7-10.1 22.6-6.3 7.9-8.3 12.8-11.5 28.4-1.4 6.9-3.7 15.9-5.2 20-4.1 12.1-14.9 35.7-19.8 43.4-5.2 8.1-5.6 11.3-1.9 15.6 4.3 5.2 31.7 21.1 36.2 21.1 2.3 0 5.2-3 5.2-5.4 0-1-2.9-5.4-6.4-9.8-3.5-4.4-6.7-9.4-7-11.1-.7-3.6-.1-5 11.9-26.2 9.8-17.5 37.3-73.2 38.1-77.5.5-2.4.1-3.9-1.6-6.3-4.2-5.7-22.3-24.7-23.5-24.7-.7 0-1.7.6-2.3 1.2z"/><path d="M54 424.2c-.5 1.3-1.1 3.9-1.4 5.8-.4 2.3-5 9.8-13.6 21.9-11.9 16.9-13 18.8-13 22.9 0 3.7.6 5 3.4 7.8l3.4 3.4h13.6c13.3 0 13.6 0 15.2-2.5 2.3-3.5 1-6.2-5.2-10.1-3-1.9-5.4-3.8-5.4-4.2 0-.4 6.5-7 14.5-14.5 10.1-9.7 14.5-14.5 14.5-16 0-1.7-2.7-3.9-11-9.5-6.1-3.9-11.7-7.2-12.5-7.2-.9 0-2 1-2.5 2.2z"/></svg>