<svg xmlns="http://www.w3.org/2000/svg" width="682.667" height="682.667" version="1.0" viewBox="0 0 512 512"><path d="M32 1.4C17.3 5.5 5.3 17.6 1.4 32.4.3 36.6 0 63.6 0 187.5c0 165.6-.4 156.3 6.3 167.4 4.2 6.9 10.6 12.6 18.7 16.5l6.5 3.1 43.8.3 43.7.3V431l-24.2 16.2C80.1 457.1 70 464.5 69.3 466c-.8 1.6-1.3 7.5-1.3 17 0 12 .4 15.2 1.9 18.5 2.1 4.6 5.4 7.9 9.4 9.4 2 .8 43.5 1.1 133.8 1.1 139.9 0 134.7.2 140-4.6 1.4-1.3 2.4-1.3 5.9-.4 16.8 4.5 45.3 6.2 61.1 3.6 47.3-7.8 83.1-43.6 90.5-90.6 1.2-7.7 1.4-18.5 1.2-57l-.3-47.5-2.8-5.7c-8.2-16.8-29-24.3-45-16.4l-4.8 2.3-2.4-4.8c-1.4-2.6-4.7-6.7-7.5-9.1l-5-4.3V158.7c0-104.3-.2-119.6-1.6-125.7-2.5-11.3-11.4-22.9-21.3-28-10.4-5.2-1-5-200.1-4.9C76.5.2 35.5.5 32 1.4zm377.2 17.2c6.1 2 12.1 7.3 15 13.2l2.3 4.7.3 118.2.2 118.3h-2.7c-1.6.1-5.3 1-8.3 2.1-3 1.1-6.2 2.2-7 2.5-1.1.4-2.1-.6-3.3-3-6.7-14.2-25.3-21.8-40.4-16.7-3.4 1.2-6.5 2.1-6.8 2.1-.3 0-.5-19.1-.5-42.5v-42.6l12-7.7c11.5-7.4 14-10 14-14.3 0-2.8-5.3-7.9-8.3-7.9-1.3 0-6.4 2.5-11.3 5.6l-8.9 5.6-1.5-2.4c-3.3-5.1-9.7-11.1-14.5-13.6-4.4-2.4-6.1-2.7-15-2.7-8.6 0-10.7.3-15 2.4-6.7 3.3-13.1 10-16.3 16.9-2.5 5.3-2.7 6.9-3.2 23.6l-.5 17.8-53.9 34.3c-37.5 23.8-54.4 35.1-55.3 37-2.9 5.5 1.2 11.8 7.6 11.8 2 0 17.9-9.6 52.5-31.6l49.6-31.6v95.4l-7.5-13.5c-8.8-15.7-11.7-19-20.5-23.3-5.6-2.8-7.5-3.2-14.5-3.2-6.6 0-9 .5-13.6 2.6-10.9 5.1-18.5 14.9-19.8 25.3l-.6 5.1-98.3.3-98.2.2.2-135.7c.3-130.2.4-135.9 2.2-139.3C23 25.2 29.1 20 36 17.9c1.4-.4 84.9-.8 185.6-.8 163.1-.1 183.5.1 187.6 1.5zm-76.1 137.7c1.8 1.2 4.4 3.8 5.6 5.6l2.3 3.4v62.9c0 68.7-.1 67.3 5.8 69.7 5.6 2.3 10.5-1.5 11.6-9.1.9-6.2 4.2-10.8 9.6-13.6 5.6-2.8 9.4-2.8 15 0 8 4.2 9.9 9 10 26 0 8.4.3 10.1 2 11.8 2.8 2.8 6.3 3.4 9.8 1.6 3.1-1.6 4.4-4.4 5.7-11.9.8-4.7 6.1-10.2 11.4-11.8 7.3-2.2 15.5 1.2 19.5 8.1 1.7 2.9 2.2 5.5 2.4 15.5.3 13.1 1.1 15.8 5.2 17.5 5.8 2.4 10.8-1.1 11.7-8.2.7-5.7 2.4-8.8 6.7-12.6 7.1-6.2 18-4.7 24.2 3.4l2.9 3.7.3 45.5c.3 50-.2 55.9-5.7 71-7.3 20.2-22.6 38.1-41.4 48.6-8.2 4.6-22.2 9.2-32.6 10.7-16.5 2.3-44.3-.5-61.6-6.2-15.3-5.2-30.7-15-38.2-24.5-2.4-3-74.8-132.7-82.8-148.3-2.7-5.2-2.3-12.3 1-17.2 2.9-4.4 9-7.9 14-7.9 4.3 0 10.9 3.3 13.2 6.6 1.1 1.6 8.6 14.8 16.7 29.4 8.1 14.6 15.4 27.1 16.3 27.8 2.5 1.8 7.7 1.5 10.4-.7l2.4-1.9.5-92.9.5-92.9 2.6-4c3.4-5 7.9-7.3 14.5-7.4 3.7 0 6 .6 8.5 2.3zM226.9 340.5c5 9 9.1 16.7 9.1 17 0 .3-44.9.5-99.8.5H36.4l-5.2-2.6c-9.4-4.7-14.2-13.3-14.2-25.6V324h200.8l9.1 16.5zm33.2 60c7.6 13.7 13.9 25.3 13.9 25.7 0 .5-30.8.8-68.5.8H137v-52l54.6.2 54.6.3 13.9 25zm28.6 51.8c2.4 4.4 4.3 8.1 4 8.3-.2.2-42.4.3-93.8.2l-93.4-.3 12-8.2 12-8.2 77.4.2 77.3.2 4.5 7.8zm19.9 28.8c1.6 1.7 5.8 5.2 9.4 7.7 3.6 2.5 6.9 4.9 7.4 5.4.6.4-53.3.8-119.7.8H85v-17h220.6l3 3.1z"/><path d="M81 65.2C61.5 77.3 45 88 44.3 88.9c-2.1 2.7-1.6 8.5 1 10.9 4.8 4.5 6.4 3.8 44.3-19.8 19.4-12.1 36-23 36.9-24.2 2.2-3.3 1.9-7.5-1-10.3-4.8-4.9-6.1-4.4-44.5 19.7zM140.5 103.6c-52.2 33.3-95.6 61.3-96.2 62.1-2.2 2.8-1.6 8.1 1.2 10.8 3 3.1 6.8 3.2 12 .2 11.7-6.8 187.2-119.1 188.3-120.4 2.1-2.8 1.5-8.7-1.1-11.1-5.2-4.9-2.4-6.4-104.2 58.4zM213.8 154.4C122.1 215.5 46.2 266.4 45 267.5c-4.8 4.4-.8 13.8 6 13.8 2.3 0 41.3-25.5 171.4-112.3 92.7-61.7 168.7-112.9 169-113.7 1.3-3.4.5-8-1.7-10.1-5.3-5 3.2-10.4-175.9 109.2z"/></svg>