<svg xmlns="http://www.w3.org/2000/svg" xml:space="preserve" viewBox="0 0 187.059 187.059"><path d="M118.373 103.686c1.534-7.039 3.118-30.954-7.727-40.355-3.161-2.74-10.645-7.989-12.767-10.802-.398-.53-.666-1.339-.828-2.262 1.173-2.743 2.938-6.293 2.938-6.293 1.571-2.037 4.274-1.4 5.735-1.233 4.165.411 5.176-.837 5.176-.837.901-.572.421-2.886.421-2.886-.372-1.184.164-1.791.499-2.256.896-1.303.341-1.884.341-1.884l-.109-.554c1.005-.354 1.06-.904 1.06-.904l-.067-1.851c-.177-1.267.384-1.355.384-1.355 2.302-.097 2.217-1.583 2.217-1.583.073-.816-2.801-5.636-2.801-5.636-1.353-2.469.462-4.003.56-5.294.451-5.949-1.632-9.539-4.421-12.353C104.393.67 98.574-.097 94.79.009c-9.715.28-13.576 3.44-16.475 6.814-6.043 7.03-4.615 13.058-4.615 13.058.231 3.593 5.325 10.026 5.325 10.026 4.068 5.593 2.208 10.013 2.208 10.013l.07.013c.036 3.498-.561 7.514-3.069 9.971-8.181 7.989-15.019 21.787-7.2 43.528 3.373 9.365 16.623 31.006 11.792 37.984-5.836 8.415-17.354 19.96-5.568 40.59 0 0-.606 6.352-1.093 15.053h32.814c.104-1.967 2.387-10.583 2.314-12.763-.323-9.463.188-21.349 1.314-26.841 2.016-9.986 6.54-21.617 5.889-40.273-.031-1.346-.08-2.497-.123-3.496zm-27.301 8.939.88.328a37.78 37.78 0 0 1 1.839 5.006l-.447.804-.17.024-.636-.469a36.323 36.323 0 0 0-1.775-4.816l.309-.877zm-1.863-3.532-.38.128-.487-.256a91.149 91.149 0 0 1-2.594-4.64l.28-.896.88.28a90.432 90.432 0 0 0 2.481 4.464l-.18.92zm-6.043-50.615c1.546-2.917 2.874-4.463 2.926-4.527l.922-.073.061.922c-.013.019-1.291 1.495-2.737 4.278l-.584.356-.308-.076-.28-.88zm1.528 40.556-.344.859-.268.066-.597-.401a68.517 68.517 0 0 1-1.909-4.933l.405-.828.834.396a69.88 69.88 0 0 0 1.879 4.841zm-4.725-20.03-.649.666h-.021l-.648-.648-.024-1.4c0-1.318.064-2.633.171-3.903l.697-.593.605.697a39.865 39.865 0 0 0-.158 3.785l.027 1.396zm-.308 4.576.743.563a53.77 53.77 0 0 0 .965 5.075l-.478.792-.158.012-.633-.499a58.38 58.38 0 0 1-.999-5.2l.56-.743zm1.203-14.833-.648.512-.131-.012-.496-.779c.375-1.72.853-3.456 1.446-5.106l.84-.393.387.84a39.719 39.719 0 0 0-1.398 4.938zm1.803 73.07-.828.292-1.023-.487c-.448-.572-.369-1.4.207-1.851 14.172-11.332 1.656-30.349 1.531-30.537-20.374-34.09-2.324-55.488-2.144-55.713l1.852-.131.131 1.851c-.697.813-16.94 20.253 2.362 52.599.119.133 13.944 21.159-2.088 33.977zm10.695-8.038a18.725 18.725 0 0 1-2.875 4.579l-.499.231-.426-.146-.073-.92a17.463 17.463 0 0 0 2.667-4.269l.874-.341.332.866zm1.44-5.212-.654.572h-.088l-.561-.73c.112-.853.168-1.736.168-2.631 0-.804-.049-1.619-.144-2.447l.585-.719.73.584c.088.883.131 1.742.131 2.582.001.95-.06 1.893-.167 2.789z"/></svg>