<svg xmlns="http://www.w3.org/2000/svg" fill="none" viewBox="0 0 24 24"><path stroke="#000" stroke-linecap="round" stroke-linejoin="round" stroke-width="2" d="M17.144 2.803A9.991 9.991 0 0 1 22 11.376h-6a3.994 3.994 0 0 0-1.945-3.426l3.089-5.148M2 11.376c2.344.004 3.657.005 6 0 0-1.455.778-2.73 1.94-3.43L6.855 2.804A9.993 9.993 0 0 0 2 11.376Zm11 0a1 1 0 1 1-2 0 1 1 0 0 1 2 0Zm4.145 8.577A9.954 9.954 0 0 1 12 21.376a9.953 9.953 0 0 1-5.145-1.423l3.086-5.142a3.981 3.981 0 0 0 2.058.565c.754 0 1.459-.208 2.06-.57l3.086 5.147Z"/></svg>