<svg xmlns="http://www.w3.org/2000/svg" version="1.0" viewBox="0 0 512 512"><path d="M255 40.6c-40.6 4.8-69.2 19.1-93.8 46.8-22.6 25.5-39.8 64-47.1 105.6-4.2 23.7-5.2 28.5-8.2 38.8-3.7 12.6-9.9 30.3-16.8 47.5-5.6 14-6.3 19-3.2 24.7 3.4 6.4 6.6 7.4 24.6 8l16 .5-.3 3.6c-.5 5.6 1.7 23 3.9 30.9 9.5 34.3 38.7 55.6 82.5 60.2l11.3 1.2.3 17c.3 16.8.3 17.2 3.5 23.8 4 8.4 10.7 15.1 19.3 19.2l6.5 3.1h100l6.8-3.2c8-3.8 15.4-11 19.1-18.5 4-8.3 4.8-17.2 4.1-45.8-.8-29.3.5-56 3.5-73.4 3-17.8 8.4-32.5 20.7-56.7 11.9-23.4 17.6-38.8 21.5-58 2-9.9 2.3-14.3 2.3-33.4 0-17.3-.4-23.9-1.8-31-4.2-20.4-13.2-42.4-22.5-54.5-21.4-28.1-55.8-46.9-99.2-54.2-11-1.8-44.3-3.2-53-2.2zm52 18.3c36.4 6.4 65.7 21.5 84.1 43.4 9.6 11.5 17.7 29.4 22.1 48.7 2 9.3 2.3 13 2.3 32-.1 18.4-.4 22.9-2.3 31.5-3.9 17.5-9 30.9-20.6 53.9-21.5 42.5-24.7 58.8-25 128.1-.2 37.3-.3 41.4-2 45.3-2.2 5.2-9.1 11.4-14.4 13-2.8.9-17.1 1.2-48.3 1.2-42.5 0-44.6-.1-48.9-2.1-5.3-2.4-8.3-5-11.3-9.9-2-3.2-2.2-5.1-2.7-25.3l-.5-21.9-2.8-2.4c-2.4-2.1-3.8-2.4-10.5-2.4-31.9 0-59.8-12.2-72.7-31.6-8.1-12.1-12.4-30.9-10.9-47.3 1-11 .8-12.1-2.2-14.9-2.4-2.1-3.2-2.2-21.5-2.2-10.4 0-18.9-.2-18.9-.5 0-.2 2.3-6.2 5.1-13.2 12.2-30.6 19.3-54.8 23.4-79.2 10.3-62.9 35.4-106.8 74.1-129.7 13.6-8 31.2-13.9 48.6-16.3 11.5-1.6 42.4-.6 55.8 1.8z"/><path d="M270.5 73.3c-11 3.7-18.6 10.4-23.2 20.2-2.2 4.9-2.7 7.5-2.9 14.5l-.1 8.4-8.4 6.3c-4.6 3.4-8.8 6.2-9.3 6.3-.5 0-3.8-1.5-7.5-3.3-5.9-2.9-7.5-3.2-15.1-3.2-7.1.1-9.5.5-14.6 2.9-7.7 3.4-14.4 10.3-18.1 18.1-2.4 5.1-2.8 7.3-2.8 14.5 0 7.1.4 9.4 2.7 14.2 5.3 11.4 15 18.9 27.5 21.2l6.8 1.2 3.7 11.9 3.8 11.9-5 4.4c-3.2 2.8-6.1 6.6-8.2 11-3 6-3.3 7.5-3.3 15.7 0 7.6.4 9.8 2.6 14.6 3.6 7.6 8.6 12.9 16.1 17 6 3.2 6.8 3.4 16.3 3.4 8.9 0 10.6-.3 15.7-2.8 7.1-3.5 15.1-12.1 17.5-18.8l1.8-4.9h27.2l1.1 3.7c1.6 5.4 7.9 13.2 13.6 17 24.7 16.6 57.6-2.6 55.4-32.3-.6-8.6-5-17.4-11.4-23.3l-5.3-4.9 3.7-11.8 3.7-11.8 6.8-1.2c12.5-2.3 22.2-9.8 27.5-21.2 2.3-4.8 2.7-7.1 2.7-14.2 0-7.2-.4-9.4-2.8-14.5-3.7-7.8-10.4-14.7-18.1-18.1-5.1-2.4-7.5-2.8-14.6-2.9-7.6 0-9.2.3-15.1 3.2-3.7 1.8-7 3.3-7.5 3.3-.5-.1-4.7-2.9-9.3-6.3l-8.4-6.3-.1-8.4c-.2-10.3-3.1-17.4-10-24.8-8.5-9.1-24.2-13.5-35.1-9.9zm20.7 18.2c4.2 2.8 8.8 10.8 8.8 15.5 0 13.1-12.6 23.3-24.9 20-7.7-2-15-11-15.1-18.4 0-8.1 6.2-17.4 13.2-19.5 5.4-1.7 13.5-.6 18 2.4zM256.7 135c2.5 2.2 6.8 4.8 9.7 5.9 4.8 1.8 5.1 2.1 5.4 5.7l.3 3.9-6.6 2.9c-4.6 2-7.9 4.4-11.3 8.1l-4.8 5.2-5-1.8-4.9-1.9-.2-6.2c-.1-3.5-.8-8.2-1.7-10.5l-1.5-4.2 7.7-5.5c4.2-3.1 7.8-5.6 8-5.6.2 0 2.4 1.8 4.9 4zm60.1 2 7.1 5.1-1.6 4.2c-.8 2.3-1.6 7-1.6 10.5l-.2 6.2-4.9 1.9-5 1.8-4.8-5.2c-3.4-3.7-6.7-6.1-11.3-8.1l-6.6-2.9.3-3.9c.3-3.6.6-3.9 5.5-5.8 2.8-1 7.1-3.6 9.5-5.8 2.3-2.2 4.8-3.8 5.4-3.5.6.2 4.3 2.7 8.2 5.5zm-105.3 2.9c10.6 4.8 15.1 17.2 10 27.2-2.1 4.1-8 8.7-12.7 10-11.3 3-22.9-5-24.5-16.9-2-14.8 13.7-26.5 27.2-20.3zm153.9.6c4.9 2.4 9.3 8.4 10.2 14.2 2.7 18.2-18.5 30.1-32.2 18.1-8.5-7.5-9.4-19.1-2.1-27.5 6.3-7.2 15.3-9 24.1-4.8zm-74.2 29.1c9.7 6.8 11.4 20.1 3.6 29-4.3 4.9-8.3 6.7-14.8 6.7-6.1 0-10.1-1.7-14.2-6-7.1-7.4-7.5-17.4-1.2-25.9 5.8-7.9 18.3-9.7 26.6-3.8zm-50.7 11c3 1.2 3.2 1.6 3.8 8.1.5 5 1.6 8.7 4.3 14l3.6 7.2-2.7 3.4-2.8 3.4-4.5-1.3c-2.5-.8-6.6-1.4-9.2-1.4h-4.6l-3.9-12-3.9-12 2.4-1.7c1.4-.9 4.3-3.5 6.5-5.9 4.2-4.4 4.6-4.5 11-1.8zm89.8 1.7c2.3 2.4 5.3 5 6.7 5.9l2.5 1.6-3.8 11.6c-3.8 11.5-3.9 11.6-7 11.6-1.7 0-5.9.7-9.4 1.6l-6.3 1.6-2.4-2.9c-2.9-3.2-3.2-5.5-1.2-7.2 2.4-2 5.6-10.7 6.3-17.6l.8-6.7 4.5-1.9c2.5-1 4.6-1.8 4.8-1.8.1-.1 2.1 1.8 4.5 4.2zm-55.5 38.8c4.9.9 10.7.4 17.8-1.7 1.7-.4 2.8.2 4.9 3l2.7 3.6-3 6.2c-1.7 3.5-3.3 7.1-3.6 8.1-.5 1.6-1.8 1.7-13.7 1.5l-13.1-.3-1.8-4.7c-1-2.6-2.7-6-3.8-7.5l-2-2.8 3-3.8c2.4-3 3.6-3.7 5.2-3.3 1.2.4 4.5 1.1 7.4 1.7zm64.1 11.7c11.8 7.3 12 24.5.5 32.5-18.9 13.1-40.9-12.2-25.6-29.3 6.7-7.5 16.3-8.7 25.1-3.2zm-97.8-.5c13.5 7.2 13.4 27.2-.1 34.5-6.5 3.4-15.4 2.8-20.7-1.4-12.1-9.6-10.4-26.7 3.2-33.8 4.5-2.4 12.4-2 17.6.7z"/></svg>