<svg xmlns="http://www.w3.org/2000/svg" xml:space="preserve" viewBox="0 0 404.5 117.5" fill='#000000'><path d="M29.299 21.502c0 6.232-4.89 11.285-10.921 11.285-6.03 0-10.92-5.053-10.92-11.285 0-6.231 4.89-11.285 10.92-11.285 6.031 0 10.92 5.054 10.92 11.285zM29.299 59.96c0 6.232-4.89 11.285-10.921 11.285-6.03 0-10.92-5.053-10.92-11.285 0-6.233 4.89-11.285 10.92-11.285 6.031 0 10.92 5.052 10.92 11.285zM29.299 98.418c0 6.231-4.89 11.285-10.921 11.285-6.03 0-10.92-5.054-10.92-11.285s4.89-11.285 10.92-11.285c6.031 0 10.92 5.053 10.92 11.285zM67.406 59.96c0 6.232-4.89 11.285-10.921 11.285-6.03 0-10.92-5.053-10.92-11.285 0-6.233 4.89-11.285 10.92-11.285s10.92 5.052 10.92 11.285zM67.406 21.502c0 6.232-4.89 11.285-10.921 11.285-6.03 0-10.92-5.053-10.92-11.285 0-6.231 4.89-11.285 10.92-11.285s10.92 5.054 10.92 11.285zM105.512 59.96c0 6.232-4.89 11.285-10.921 11.285-6.03 0-10.92-5.053-10.92-11.285 0-6.233 4.89-11.285 10.92-11.285 6.031 0 10.92 5.052 10.92 11.285zM105.512 21.502c0 6.232-4.89 11.285-10.921 11.285-6.03 0-10.92-5.053-10.92-11.285 0-6.231 4.89-11.285 10.92-11.285 6.031 0 10.92 5.054 10.92 11.285zM105.512 98.418c0 6.231-4.89 11.285-10.921 11.285-6.03 0-10.92-5.054-10.92-11.285s4.89-11.285 10.92-11.285c6.031 0 10.92 5.053 10.92 11.285zM67.406 98.418c0 6.231-4.89 11.285-10.921 11.285-6.03 0-10.92-5.054-10.92-11.285s4.89-11.285 10.92-11.285 10.92 5.053 10.92 11.285zM188.786 69.01l19.568 40.445h-16.557l-19.021-39.171h-21.621v39.171H137.06V10.463h42.01c16.695 0 30.79 9.192 30.79 29.556 0 15.839-8.074 25.596-21.074 28.99zm-9.716-44.547h-27.914v31.82h27.914c9.58 0 16.285-5.092 16.285-15.84 0-10.324-6.57-15.98-16.285-15.98zM268.02 111.012c-24.767 0-40.504-21.072-40.504-51.053S243.253 8.907 268.02 8.907c24.906 0 40.642 21.071 40.642 51.052s-15.736 51.053-40.642 51.053zm0-87.256c-16.694 0-25.862 14-25.862 36.203 0 22.203 9.168 36.204 25.862 36.204 16.833 0 26-14 26-36.204 0-22.203-9.168-36.203-26-36.203zM358.066 111.012c-13.958 0-26-6.223-34.074-15.98l10.264-10.325c6.431 7.213 15.873 11.738 24.904 11.738 13.41 0 19.842-4.808 19.842-14.425 0-7.636-5.61-11.455-21.621-16.405-20.252-6.221-29.967-11.454-29.967-29.131 0-17.112 13.957-27.577 31.609-27.577 13 0 22.852 4.95 31.336 13.435l-10.125 10.606c-6.021-6.363-12.863-9.474-22.304-9.474-11.223 0-16.012 5.656-16.012 12.303 0 6.93 4.379 10.324 20.937 15.414 18.883 5.94 30.653 12.162 30.653 29.84 0 17.819-10.948 29.98-35.442 29.98z"/></svg>