<svg xmlns="http://www.w3.org/2000/svg" version="1.0" viewBox="0 0 880 1060"><path d="M488.5 40.9c-4.4 1.1-8.5 3.5-14.2 7.9-8.9 7.1-11.1 7.7-35.3 10.7-22.4 2.6-37.3 7.9-50.1 17.6C364.2 96 353.2 128.2 349 194c-1.5 23.7-2.4 27.9-6 29.1-1.6.6-3.1 2-3.4 3.2-1.6 6.4-1.7 44.9-.7 145.2 1.8 164.5 2.3 175.1 8.7 195.7 7.6 24.2 19.5 41 39.2 55.2 2.8 2.1 5.2 4 5.2 4.3 0 .2-3.1 7.7-6.9 16.6-29.6 69.2-35.6 98.6-39.6 193.7-1.9 45.1-3.2 68.2-4.6 78-3.3 23.7-18.4 50.6-36.3 64.8-9.8 7.9-16.2 11.4-27.6 15.4-9.3 3.2-9.8 3.3-26 3.2-15 0-17.3-.3-25.4-2.8-22.5-6.8-35.5-14.2-48.6-27.5-14.6-14.8-23.1-31.9-24.5-49.4-.8-10.6.9-31.8 3.5-44.2 5.8-26.6 11.4-37.1 44.2-82.8 42.1-58.7 59.8-90.9 66.9-122.2 1.8-7.9 2.2-13 2.2-24.5 0-17.8-1.9-26-9.4-40.5-2.9-5.5-5.6-11.3-6.1-13-.6-1.6-1.4-12.7-1.8-24.5-.9-24.1-1.4-26.6-8.5-40.5-9.3-18.1-21.4-30.8-36.9-38.5-27.4-13.5-63.3-11.1-88.2 6.1-17.6 12.1-32.3 36.9-34.5 58.4-1.3 12.1.3 30 3.6 40.3 4.3 13.5 16 29.2 29.5 39.4 27.7 21 66.8 22.1 96.5 2.7 4.2-2.7 11.7-8.8 16.6-13.5 5-4.6 9.4-8.2 9.9-7.9.5.3 2.3 4.2 4.1 8.8 5.8 15 5.2 33.3-1.9 55.2-7.5 23-26.7 57-54.2 96-19 26.8-35.5 51.6-38.9 58.3-10.6 21-16.9 53.1-15.8 81.2.8 21.8 5.6 37.2 16.8 54 12.2 18.3 32 33.7 56.9 44.3 17.8 7.5 21.3 8.1 47.5 8.2 26.1 0 26 0 45.7-10.1 26.4-13.7 45.7-36.1 56.2-65.4 7.9-22 10.1-41.3 13.1-116.5 1.8-44.8 3.7-66.4 7.1-83.5 3.1-15.1 11.5-43.7 18.1-62 7.6-20.8 19.3-47 21-47 .8 0 6.9-.5 13.6-1.1 23.2-2 39.7-7 56.5-16.9 16-9.5 22.6-15.2 75.7-65.9 40.1-38.3 153.6-151.5 160.9-160.5 4.3-5.4 5.6-7.8 5.6-10.3 0-4.2 2.4-8 15.3-23.9 22.1-27.5 33.2-43.9 41.8-61.9 16.3-34.1 15.2-67.7-3.1-92-2.1-2.7-6.8-8.4-10.5-12.5-8.5-9.6-10.5-13.5-10.5-20.3 0-15.6-9.8-31.6-23.8-38.4-7.2-3.6-8.1-3.8-17.1-3.8-8.3.1-10.6.5-16.6 3-9.4 3.9-19.2 13.4-22.3 21.8-9.4 25 5.2 50.8 31.9 56.7 7 1.6 12.5.5 26.3-5.1l10-4 7.3 7.3c15.4 15.2 21.4 36.7 16.7 59.6-3.8 18.5-14.2 36.4-40.2 69-15.5 19.5-21.9 26.2-24.7 26.2-1.3 0-2.7-.5-3-1-1.2-2-4.9-.9-10 2.9-6.3 4.8-33.4 31-116.6 113C487 567.4 477.6 576 463.6 582.8c-27.1 13.2-49.3 11.8-64.2-4-5.9-6.2-9.2-12.2-12.3-22.2-1.7-5.6-2.3-11.1-3.1-30.5-1.5-37.3-3.1-124.7-3.9-215.2-.4-45.9-1.1-84.2-1.5-85.1-.4-.9-2.4-2-4.4-2.5-4.9-1.2-5.4-3.6-4.8-22.8 1.8-50.7 9.6-79 27-97.3 11-11.5 23.9-18.1 42.9-21.7 9.9-1.9 16.1-1.9 17.6-.1.6.8 1.6 4 2.1 7.2 1.2 7.2 5.7 14.8 13.3 22.6 7.5 7.6 12.6 9.9 23.7 10.6 13.6.7 23.9-2.9 32.5-11.5 17-17 14.7-46.8-4.7-62.3-2.8-2.2-7.4-4.7-10.2-5.6-5.8-1.8-20.7-2.7-25.1-1.5z"/></svg>