<svg xmlns="http://www.w3.org/2000/svg" fill-rule="evenodd" clip-rule="evenodd" image-rendering="optimizeQuality" shape-rendering="geometricPrecision" text-rendering="geometricPrecision" viewBox="0 0 512 512"><path d="M217.5 31.5c26.089-.482 52.089.018 78 1.5 3.802 2.087 6.302 5.254 7.5 9.5.171 5.364.671 10.697 1.5 16a72.374 72.374 0 0 1 14 8c5.125-3.732 10.792-6.065 17-7 5.513-.22 10.013 1.78 13.5 6l34 60c1.646 7.023.146 13.189-4.5 18.5a56.927 56.927 0 0 0-12 8c1.333 5 1.333 10 0 15a56.927 56.927 0 0 0 12 8c6.501 8.599 6.668 17.432.5 26.5l-30 52c-5.028 5.452-11.194 7.285-18.5 5.5a103.59 103.59 0 0 1-12-6.5 91.396 91.396 0 0 1-14 8 289.721 289.721 0 0 1-2.5 19c-1.907 3.539-4.74 6.039-8.5 7.5a771.424 771.424 0 0 1-78-1c-2.833-1.5-5-3.667-6.5-6.5a289.721 289.721 0 0 1-2.5-19 72.4 72.4 0 0 1-14-8c-5.125 3.732-10.792 6.065-17 7-5.513.22-10.013-1.78-13.5-6l-34-60c-1.646-7.023-.146-13.189 4.5-18.5a56.927 56.927 0 0 0 12-8c-1.333-5-1.333-10 0-15a56.927 56.927 0 0 0-12-8c-6.501-8.599-6.668-17.432-.5-26.5l30-52c5.028-5.452 11.194-7.285 18.5-5.5a103.68 103.68 0 0 1 12 6.5 72.374 72.374 0 0 1 14-8 289.748 289.748 0 0 1 2.5-19c2.157-3.476 4.99-6.142 8.5-8Zm23 32h30c-.894 7.151 1.106 13.318 6 18.5a246.886 246.886 0 0 1 19 9 131.755 131.755 0 0 0 16 11c4 .667 8 .667 12 0a15.83 15.83 0 0 0 5.5-3.5 507.834 507.834 0 0 1 15.5 26 120.538 120.538 0 0 1-8.5 7c-2.359 3.077-3.526 6.577-3.5 10.5a1406.09 1406.09 0 0 0 2 17.5 115.684 115.684 0 0 0-1.5 22c1.911 5.579 5.577 9.579 11 12 .315 1.408-.018 2.741-1 4a401.586 401.586 0 0 1-14 23 15.83 15.83 0 0 0-5.5-3.5c-4-.667-8-.667-12 0a131.744 131.744 0 0 0-16 11 8725.32 8725.32 0 0 0-19 9c-4.894 5.182-6.894 11.349-6 18.5h-30c.894-7.151-1.106-13.318-6-18.5a181.354 181.354 0 0 1-35-20c-6.339-1.932-12.172-.766-17.5 3.5a507.834 507.834 0 0 1-15.5-26 120.538 120.538 0 0 1 8.5-7c2.359-3.077 3.526-6.577 3.5-10.5a1406.09 1406.09 0 0 0-2-17.5 115.684 115.684 0 0 0 1.5-22c-1.911-5.579-5.577-9.579-11-12-.315-1.408.018-2.741 1-4a401.586 401.586 0 0 1 14-23c5.328 4.266 11.161 5.432 17.5 3.5a181.37 181.37 0 0 1 35-20c4.894-5.182 6.894-11.349 6-18.5Zm10 81c17.265-.243 23.098 7.757 17.5 24-6.251 6.511-13.418 7.677-21.5 3.5-6.511-6.251-7.677-13.418-3.5-21.5 2.114-2.621 4.614-4.621 7.5-6Z" opacity=".97"/><path d="M245.5 111.5c29.66-2.936 48.826 9.731 57.5 38 3.421 29.68-9.079 48.846-37.5 57.5-29.68 3.421-48.846-9.079-57.5-37.5-3.301-29.765 9.199-49.098 37.5-58Zm5 33c-2.886 1.379-5.386 3.379-7.5 6-4.177 8.082-3.011 15.249 3.5 21.5 8.082 4.177 15.249 3.011 21.5-3.5 5.598-16.243-.235-24.243-17.5-24Z" opacity=".963"/><path d="M73.5 207.5c14.67-.167 29.337 0 44 .5 8.982 4.473 12.149 11.64 9.5 21.5-1.833 4.5-5 7.667-9.5 9.5-7.326.5-14.659.666-22 .5v176h320v-176c-7.341.166-14.674 0-22-.5-8.982-4.473-12.149-11.64-9.5-21.5 1.833-4.5 5-7.667 9.5-9.5a484.008 484.008 0 0 1 44 0c4.5 1.833 7.667 5 9.5 9.5.5 65.999.667 131.999.5 198 7.341-.166 14.674 0 22 .5 4.5 1.833 7.667 5 9.5 9.5 2.448 23.205-6.718 40.038-27.5 50.5a86.35 86.35 0 0 1-10 3c-124 .667-248 .667-372 0-19.833-5.167-32.333-17.667-37.5-37.5a64.247 64.247 0 0 1 0-16c1.833-4.5 5-7.667 9.5-9.5 7.326-.5 14.66-.666 22-.5-.167-66.001 0-132.001.5-198 2.022-4.52 5.189-7.853 9.5-10Z" opacity=".995"/><path d="M217.5 303.5c19.278-.89 25.778 7.776 19.5 26a667.23 667.23 0 0 0-21.5 22 667.23 667.23 0 0 0 21.5 22c6.294 18.367-.206 26.867-19.5 25.5a522.612 522.612 0 0 1-39.5-37.5c-3.333-6.667-3.333-13.333 0-20a703.843 703.843 0 0 1 39.5-38ZM281.5 303.5c5.605-.592 10.939.241 16 2.5a522.612 522.612 0 0 1 37.5 39.5c1.091 5.597.424 10.93-2 16a522.612 522.612 0 0 1-39.5 37.5c-19.294 1.367-25.794-7.133-19.5-25.5a667.23 667.23 0 0 0 21.5-22 667.23 667.23 0 0 0-21.5-22c-5.323-11.126-2.823-19.793 7.5-26Z" opacity=".958"/></svg>